<svg width="22" height="16" viewBox="0 0 22 16" fill="none" xmlns="http://www.w3.org/2000/svg">
<path d="M20 0.125H2C1.50348 0.127464 1.028 0.325799 0.676897 0.676897C0.325799 1.028 0.127464 1.50348 0.125 2V13.9906C0.127464 14.4871 0.325799 14.9626 0.676897 15.3137C1.028 15.6648 1.50348 15.8632 2 15.8656H20C20.4965 15.8632 20.972 15.6648 21.3231 15.3137C21.6742 14.9626 21.8725 14.4871 21.875 13.9906V2C21.8725 1.50348 21.6742 1.028 21.3231 0.676897C20.972 0.325799 20.4965 0.127464 20 0.125ZM19.625 2.375V3.95938H2.375V2.375H19.625ZM2.375 13.625V6.20938H19.625V13.625H2.375ZM18.5 11.375C18.5 11.6734 18.3815 11.9595 18.1705 12.1705C17.9595 12.3815 17.6734 12.5 17.375 12.5H14.375C14.0766 12.5 13.7905 12.3815 13.5795 12.1705C13.3685 11.9595 13.25 11.6734 13.25 11.375C13.25 11.0766 13.3685 10.7905 13.5795 10.5795C13.7905 10.3685 14.0766 10.25 14.375 10.25H17.375C17.6734 10.25 17.9595 10.3685 18.1705 10.5795C18.3815 10.7905 18.5 11.0766 18.5 11.375ZM11.75 11.375C11.75 11.6734 11.6315 11.9595 11.4205 12.1705C11.2095 12.3815 10.9234 12.5 10.625 12.5H9.125C8.82663 12.5 8.54048 12.3815 8.3295 12.1705C8.11853 11.9595 8 11.6734 8 11.375C8 11.0766 8.11853 10.7905 8.3295 10.5795C8.54048 10.3685 8.82663 10.25 9.125 10.25H10.625C10.9234 10.25 11.2095 10.3685 11.4205 10.5795C11.6315 10.7905 11.75 11.0766 11.75 11.375Z" fill="#666666"/>
</svg>
