<svg width="16" height="20" viewBox="0 0 16 20" fill="none" xmlns="http://www.w3.org/2000/svg">
<path d="M3.38999 14.5388C2.00145 13.5596 0.960735 12.1638 0.418622 10.5535C-0.123492 8.94321 -0.138846 7.20216 0.374786 5.58258C0.888417 3.96299 1.90435 2.549 3.27541 1.54547C4.64646 0.541932 6.30141 0.000976563 8.00049 0.000976562C9.69956 0.000976562 11.3545 0.541932 12.7256 1.54547C14.0966 2.549 15.1126 3.96299 15.6262 5.58258C16.1398 7.20216 16.1245 8.94321 15.5824 10.5535C15.0402 12.1638 13.9995 13.5596 12.611 14.5388L14.694 19.2988C14.7274 19.375 14.7413 19.4583 14.7344 19.5413C14.7275 19.6242 14.7001 19.7041 14.6545 19.7737C14.6089 19.8433 14.5467 19.9005 14.4734 19.94C14.4001 19.9794 14.3182 20 14.235 19.9998H1.76499C1.6819 19.9999 1.6001 19.9794 1.52697 19.9399C1.45383 19.9005 1.39168 19.8435 1.34612 19.774C1.30056 19.7045 1.27303 19.6248 1.26603 19.542C1.25902 19.4592 1.27275 19.376 1.30599 19.2998L3.38899 14.5388H3.38999ZM10.125 13.8458L11.457 12.9048C12.4987 12.1706 13.2796 11.1238 13.6865 9.91604C14.0934 8.70829 14.1051 7.40235 13.72 6.18747C13.3349 4.97259 12.573 3.91189 11.5446 3.15908C10.5163 2.40627 9.27494 2.00047 8.00049 2.00047C6.72604 2.00047 5.48469 2.40627 4.45634 3.15908C3.42799 3.91189 2.66605 4.97259 2.28096 6.18747C1.89586 7.40235 1.90761 8.70829 2.31449 9.91604C2.72138 11.1238 3.50226 12.1706 4.54399 12.9048L5.87499 13.8458L4.05799 17.9998H11.942L10.125 13.8458ZM4.11899 8.96981L6.05899 8.48481C6.16665 8.91818 6.41624 9.30305 6.768 9.57811C7.11976 9.85318 7.55345 10.0026 7.99999 10.0026C8.44652 10.0026 8.88022 9.85318 9.23198 9.57811C9.58374 9.30305 9.83333 8.91818 9.94099 8.48481L11.881 8.96981C11.6634 9.8343 11.1635 10.6014 10.4604 11.1495C9.75735 11.6975 8.89143 11.9952 7.99999 11.9952C7.10855 11.9952 6.24262 11.6975 5.53956 11.1495C4.83649 10.6014 4.33654 9.8343 4.11899 8.96981Z" fill="#666666"/>
</svg>
