<svg width="18" height="18" viewBox="0 0 18 18" fill="none" xmlns="http://www.w3.org/2000/svg">
<path fill-rule="evenodd" clip-rule="evenodd" d="M9 1.5C9.39782 1.5 9.77936 1.65804 10.0607 1.93934C10.342 2.22064 10.5 2.60218 10.5 3C10.5 3.39782 10.342 3.77936 10.0607 4.06066C9.77936 4.34196 9.39782 4.5 9 4.5C8.60218 4.5 8.22064 4.34196 7.93934 4.06066C7.65804 3.77936 7.5 3.39782 7.5 3C7.5 2.60218 7.65804 2.22064 7.93934 1.93934C8.22064 1.65804 8.60218 1.5 9 1.5ZM9 7.5C9.39782 7.5 9.77936 7.65804 10.0607 7.93934C10.342 8.22064 10.5 8.60218 10.5 9C10.5 9.39782 10.342 9.77936 10.0607 10.0607C9.77936 10.342 9.39782 10.5 9 10.5C8.60218 10.5 8.22064 10.342 7.93934 10.0607C7.65804 9.77936 7.5 9.39782 7.5 9C7.5 8.60218 7.65804 8.22064 7.93934 7.93934C8.22064 7.65804 8.60218 7.5 9 7.5ZM9 13.5C9.39782 13.5 9.77936 13.658 10.0607 13.9393C10.342 14.2206 10.5 14.6022 10.5 15C10.5 15.3978 10.342 15.7794 10.0607 16.0607C9.77936 16.342 9.39782 16.5 9 16.5C8.60218 16.5 8.22064 16.342 7.93934 16.0607C7.65804 15.7794 7.5 15.3978 7.5 15C7.5 14.6022 7.65804 14.2206 7.93934 13.9393C8.22064 13.658 8.60218 13.5 9 13.5Z" fill="black"/>
</svg>
