<svg width="24" height="24" viewBox="0 0 24 24" fill="none" xmlns="http://www.w3.org/2000/svg">
<path d="M12 19.35C14.0333 17.4833 15.5417 15.7873 16.525 14.262C17.5083 12.7373 18 11.3833 18 10.2C18 8.38333 17.4207 6.89567 16.262 5.737C15.104 4.579 13.6833 4 12 4C10.3167 4 8.89567 4.579 7.737 5.737C6.579 6.89567 6 8.38333 6 10.2C6 11.3833 6.49167 12.7373 7.475 14.262C8.45833 15.7873 9.96667 17.4833 12 19.35ZM12 22C9.31667 19.7167 7.31267 17.5957 5.988 15.637C4.66267 13.679 4 11.8667 4 10.2C4 7.7 4.80433 5.70833 6.413 4.225C8.021 2.74167 9.88333 2 12 2C14.1167 2 15.979 2.74167 17.587 4.225C19.1957 5.70833 20 7.7 20 10.2C20 11.8667 19.3377 13.679 18.013 15.637C16.6877 17.5957 14.6833 19.7167 12 22Z" fill="#666666"/>
<path d="M15.75 13.5H14.25V7.5H9.75V13.5H8.25V7.5C8.2504 7.1023 8.40856 6.721 8.68978 6.43978C8.971 6.15856 9.3523 6.0004 9.75 6H14.25C14.6477 6.0004 15.029 6.15856 15.3102 6.43978C15.5914 6.721 15.7496 7.1023 15.75 7.5V13.5Z" fill="#666666"/>
<path d="M11.25 12H12.75V13.5H11.25V12ZM11.25 9H12.75V10.5H11.25V9Z" fill="#666666"/>
</svg>
