<svg width="22" height="22" viewBox="0 0 22 22" fill="none" xmlns="http://www.w3.org/2000/svg">
<path d="M21.1913 19.3987L16.4133 14.6207C17.5636 13.0893 18.1846 11.2253 18.1825 9.31C18.1825 4.41773 14.2023 0.4375 9.31 0.4375C4.41773 0.4375 0.4375 4.41773 0.4375 9.31C0.4375 14.2023 4.41773 18.1825 9.31 18.1825C11.2253 18.1846 13.0893 17.5636 14.6207 16.4133L19.3987 21.1913C19.6406 21.4075 19.956 21.5229 20.2803 21.5138C20.6046 21.5048 20.9131 21.3719 21.1425 21.1425C21.3719 20.9131 21.5048 20.6046 21.5138 20.2803C21.5229 19.956 21.4075 19.6406 21.1913 19.3987ZM2.9725 9.31C2.9725 8.05656 3.34419 6.83127 4.04056 5.78907C4.73693 4.74688 5.72672 3.93458 6.88474 3.45491C8.04277 2.97524 9.31703 2.84974 10.5464 3.09427C11.7757 3.33881 12.905 3.9424 13.7913 4.82871C14.6776 5.71503 15.2812 6.84426 15.5257 8.07362C15.7703 9.30297 15.6448 10.5772 15.1651 11.7353C14.6854 12.8933 13.8731 13.8831 12.8309 14.5794C11.7887 15.2758 10.5634 15.6475 9.31 15.6475C7.62981 15.6455 6.01901 14.9771 4.83094 13.7891C3.64286 12.601 2.97452 10.9902 2.9725 9.31Z" fill="#939393"/>
</svg>
