<svg width="12" height="11" viewBox="0 0 12 11" fill="none" xmlns="http://www.w3.org/2000/svg">
<path d="M0.444336 0.111328V0.73355C0.44538 0.80682 0.475332 0.876709 0.527669 0.927995L4.57211 5.01688C4.62445 5.06817 4.6544 5.13806 4.65545 5.21133V9.03911C4.65534 9.09117 4.66987 9.14221 4.69738 9.18641C4.72488 9.23062 4.76425 9.2662 4.811 9.28911L7.00545 10.0724C7.04784 10.0932 7.09482 10.1028 7.14197 10.1004C7.18911 10.098 7.23486 10.0836 7.27489 10.0586C7.31492 10.0335 7.34792 9.99872 7.37076 9.95741C7.3936 9.9161 7.40554 9.86965 7.40545 9.82244V5.16133C7.41313 5.08624 7.44884 5.01681 7.50545 4.96688L11.461 0.939106C11.5133 0.88782 11.5433 0.817931 11.5443 0.744662V0.111328H0.444336Z" fill="black"/>
</svg>
