<svg width="9" height="12" viewBox="0 0 9 12" fill="none" xmlns="http://www.w3.org/2000/svg">
<path d="M3.43639 0.238037C3.74889 -0.0793457 4.25639 -0.0793457 4.56889 0.238037L7.76889 3.48804C7.99889 3.72163 8.06639 4.06948 7.94139 4.37417C7.81639 4.67886 7.52639 4.8769 7.20139 4.8769H0.801392C0.478892 4.8769 0.186392 4.67886 0.0613917 4.37417C-0.0636083 4.06948 0.00639174 3.72163 0.233892 3.48804L3.43389 0.238037H3.43639ZM3.43639 11.1382L0.236392 7.88823C0.00639174 7.65464 -0.0611083 7.30679 0.0638917 7.0021C0.188892 6.69741 0.478892 6.49936 0.803892 6.49936H7.20139C7.52389 6.49936 7.81639 6.69741 7.94139 7.0021C8.06639 7.30679 7.99639 7.65464 7.76889 7.88823L4.56889 11.1382C4.25639 11.4556 3.74889 11.4556 3.43639 11.1382Z" fill="#424242"/>
</svg>
